<?xml version="1.0" encoding="UTF-8" standalone="no"?>
<svg
   xmlns:dc="http://purl.org/dc/elements/1.1/"
   xmlns:cc="http://creativecommons.org/ns#"
   xmlns:rdf="http://www.w3.org/1999/02/22-rdf-syntax-ns#"
   xmlns:svg="http://www.w3.org/2000/svg"
   xmlns="http://www.w3.org/2000/svg"
   xmlns:sodipodi="http://sodipodi.sourceforge.net/DTD/sodipodi-0.dtd"
   xmlns:inkscape="http://www.inkscape.org/namespaces/inkscape"
   version="1.1"
   x="0px"
   y="0px"
   width="48px"
   height="48px"
   viewBox="0 0 48 48"
   id="svg2"
   inkscape:version="0.91 r13725"
   sodipodi:docname="menu-manual.svg">
  <metadata
     id="metadata12">
    <rdf:RDF>
      <cc:Work
         rdf:about="">
        <dc:format>image/svg+xml</dc:format>
        <dc:type
           rdf:resource="http://purl.org/dc/dcmitype/StillImage" />
      </cc:Work>
    </rdf:RDF>
  </metadata>
  <defs
     id="defs10" />
  <sodipodi:namedview
     pagecolor="#ffffff"
     bordercolor="#666666"
     borderopacity="1"
     objecttolerance="10"
     gridtolerance="10"
     guidetolerance="10"
     inkscape:pageopacity="0"
     inkscape:pageshadow="2"
     inkscape:window-width="640"
     inkscape:window-height="480"
     id="namedview8"
     showgrid="false"
     inkscape:zoom="4.9166667"
     inkscape:cx="24"
     inkscape:cy="24"
     inkscape:window-x="0"
     inkscape:window-y="0"
     inkscape:window-maximized="0"
     inkscape:current-layer="svg2" />
  <style
     type="text/css"
     id="style4">path{fill:#555}</style>
  <path
     d="M7,18h11c0.55,0,1-0.45,1-1V9c0-0.55-0.45-1-1-1H7C6.45,8,6,8.45,6,9v8C6,17.55,6.45,18,7,18zM8,10h9v6H8V10zM7,23h11c0.55,0,1-0.45,1-1s-0.45-1-1-1H7c-0.55,0-1,0.45-1,1S6.45,23,7,23zM15,26H7c-0.55,0-1,0.45-1,1s0.45,1,1,1h8c0.55,0,1-0.45,1-1S15.55,26,15,26zM45,2H3C1.35,2,0,3.35,0,5v30c0,1.65,1.35,3,3,3h15.33c2.5,3.43,3.66,5.25,3.66,6.19c0,1.46,0,2.5,1,3.5c0.19,0.19,0.44,0.29,0.7,0.29h10.55c0.38,0,0.73-0.2,0.9-0.55c0.38-0.77,0.57-1.34,0.75-1.89c0.17-0.5,0.33-1,0.65-1.64c1.24-2.48,1.94-4.4,2.14-5.9H45c1.65,0,3-1.35,3-3V5C48,3.35,46.65,2,45,2zM3,36c-0.55,0-1-0.45-1-1V5c0-0.55,0.45-1,1-1h20v15.95c-0.6,0.48-1,1.2-1,2.05v10.6c-0.3-0.3-0.69-0.69-1.1-1.1c-1.47-1.48-3.17-1.25-4.13-0.43c-1.08,0.94-1.5,2.8-0.19,4.55c0.1,0.13,0.19,0.26,0.29,0.39H3zM36.75,37.13c0,0.86-0.35,2.58-2,5.9c-0.39,0.77-0.58,1.34-0.76,1.9c-0.1,0.35-0.23,0.69-0.39,1.07h-9.4c-0.17-0.3-0.18-0.76-0.18-1.8c0-1.7-1.3-3.73-5.8-9.76c-0.6-0.8-0.47-1.5-0.1-1.84c0.36-0.3,0.89-0.19,1.4,0.3c2.1,2.1,2.84,2.8,2.84,2.8c0.29,0.28,0.7,0.36,1.09,0.2C23.76,35.76,24,35.4,24,35V22c0-0.69,0.9-0.7,1-0.7s1,0,1,0.7v11.25c0,0.55,0.45,1,1,1s1-0.45,1-1v-4.54c0-0.69,0.9-0.7,1-0.7s1,0,1,0.7v4.54c0,0.55,0.45,1,1,1s1-0.45,1-1v-3.29c0-0.64,0.5-0.7,0.75-0.7s0.75,0.07,0.75,0.7v4.54c0,0.55,0.45,1,1,1s1-0.45,1-1v-2.25c0-0.64,0.44-0.7,0.63-0.7s0.63,0.07,0.63,0.7V37.13zM46,35c0,0.55-0.45,1-1,1h-6.25v-3.75c0-1.76-1.35-2.7-2.63-2.7c-0.2,0-0.44,0.04-0.66,0.09c-0.17-1.55-1.47-2.39-2.7-2.39c-0.36,0-0.7,0.08-1.07,0.2C31.2,26.58,30.23,26,29,26c-0.36,0-0.69,0.06-1,0.15V22c0-1.57-1.26-2.7-3-2.7h0V4h20c0.55,0,1,0.45,1,1V35zM42,23h-7c-0.55,0-1,0.45-1,1s0.45,1,1,1h7c0.55,0,1-0.45,1-1S42.55,23,42,23zM42,8H29c-0.55,0-1,0.45-1,1s0.45,1,1,1h13c0.55,0,1-0.45,1-1S42.55,8,42,8zM42,13H29c-0.55,0-1,0.45-1,1s0.45,1,1,1h13c0.55,0,1-0.45,1-1S42.55,13,42,13zM42,18H32c-0.55,0-1,0.45-1,1s0.45,1,1,1h10c0.55,0,1-0.45,1-1S42.55,18,42,18z"
     id="path6"
     style="fill:#ffffff" />
</svg>
